<?xml version="1.0" encoding="UTF-8"?>
<svg width="19px" height="21px" viewBox="0 0 19 21" version="1.1" xmlns="http://www.w3.org/2000/svg" xmlns:xlink="http://www.w3.org/1999/xlink">
    <!-- Generator: sketchtool 48.2 (47327) - http://www.bohemiancoding.com/sketch -->
    <title>C5A0BFF3-FD8B-418B-B9FD-B19E8926A405</title>
    <desc>Created with sketchtool.</desc>
    <defs></defs>
    <g id="Assets" stroke="none" stroke-width="1" fill="none" fill-rule="evenodd" transform="translate(-630.000000, -498.000000)">
        <path d="M636.345522,519 C634.59244,519 632.752374,518.341846 631.564681,516.893908 C629.716025,514.638708 629.494809,511.933997 630.957948,509.472884 C631.595286,508.400722 635.846176,504.113164 639.919877,500.061013 C640.424056,499.559615 640.767693,499.217703 640.865414,499.116658 C641.791622,498.151548 644.599775,497.145474 646.890864,499.195855 C648.946776,501.244051 648.606361,503.849357 647.223224,505.379769 C646.833949,505.810709 643.177443,509.588675 639.651948,513.22791 L638.698358,514.212683 C638.265054,514.662194 637.412406,515.165231 636.487272,515.160315 C635.790335,515.146114 635.154607,514.838065 634.648281,514.269486 C633.285548,512.699203 634.290684,510.97271 635.011247,510.277962 L642.842934,502.636279 C643.163483,502.323314 643.674642,502.333692 643.98123,502.660311 C644.289966,502.98693 644.27869,503.50526 643.957605,503.818224 L636.122695,511.463731 C635.964837,511.621032 635.208301,512.439218 635.84886,513.177661 C636.05182,513.404874 636.26713,513.516842 636.519488,513.521758 C636.525394,513.522304 636.531838,513.522304 636.538281,513.522304 C636.952792,513.522304 637.376431,513.243203 637.548786,513.064601 L638.505062,512.077097 C640.449292,510.070411 645.614577,504.738547 646.037679,504.270466 C646.634747,503.610128 647.353162,501.949177 645.794986,500.396371 C644.117611,498.895453 642.226537,500.043535 642.01767,500.261463 C641.917801,500.365239 641.563963,500.717528 641.04636,501.232581 C639.044679,503.223428 632.953187,509.281719 632.336252,510.32111 C631.235005,512.173226 631.40038,514.134578 632.801772,515.844139 C634.260616,517.623612 637.350659,517.768351 638.857826,516.638293 C638.874471,516.625731 638.891653,516.613715 638.909909,516.602791 C640.104582,515.844686 644.761392,510.870573 647.600151,507.713074 C647.900295,507.378808 648.410918,507.356415 648.737909,507.661186 C649.066511,507.966504 649.089063,508.484288 648.788918,508.818554 C648.054395,509.635647 641.593494,516.799418 639.789403,517.97481 C638.888431,518.64061 637.640602,519 636.345522,519" id="Add" fill="#B5BFCB"></path>
    </g>
</svg>