<?xml version="1.0" encoding="UTF-8"?>
<svg width="16px" height="14px" viewBox="0 0 16 14" version="1.1" xmlns="http://www.w3.org/2000/svg" xmlns:xlink="http://www.w3.org/1999/xlink">
    <!-- Generator: sketchtool 48.2 (47327) - http://www.bohemiancoding.com/sketch -->
    <title>7B06BCED-23E5-49D4-9890-47AC6C6BCA1B</title>
    <desc>Created with sketchtool.</desc>
    <defs></defs>
    <g id="Main_screen3" stroke="none" stroke-width="1" fill="none" fill-rule="evenodd" transform="translate(-34.000000, -306.000000)">
        <g id="Group-15" transform="translate(10.000000, 211.000000)" fill="#B3BFC9" fill-rule="nonzero">
            <g id="noun_1180653_cc" transform="translate(25.000000, 96.000000)">
                <path d="M12.55072,2.4 L10.4944,2.4 L10.4944,1.47692308 C10.485806,0.658634854 9.83945159,-4.78962835e-05 9.04512,0 L1.44928,0 C0.648864758,0 0,0.668473308 0,1.49307692 L0,10.5161538 C0.00492691893,11.3371503 0.652350839,12.0000157 1.44928,12 L12.55072,12 C13.3511352,12 14,11.3315267 14,10.5069231 L14,3.89307692 C14,3.06847331 13.3511352,2.4 12.55072,2.4 Z M9.9344,1.47692308 L9.9344,2.4 L8.15584,2.4 L8.15584,1.47692308 C8.1574745,1.14238916 8.04933174,0.817102115 7.84896,0.553846154 L9.04512,0.553846154 C9.28275607,0.555675398 9.50995308,0.654686597 9.67672687,0.829096933 C9.84350066,1.00350727 9.93618895,1.23902887 9.9344,1.48384615 L9.9344,1.47692308 Z M7.59808,1.47692308 L7.59808,2.4 L5.81952,2.4 L5.81952,1.47692308 C5.8211545,1.14238916 5.71301174,0.817102115 5.51264,0.553846154 L6.7088,0.553846154 C7.20277535,0.558920934 7.59956956,0.97493218 7.59584,1.48384615 L7.59808,1.47692308 Z M13.44,10.5161538 C13.44,11.0259552 13.0388471,11.4392308 12.544,11.4392308 L1.44928,11.4392308 C0.954432864,11.4392308 0.55328,11.0259552 0.55328,10.5161538 L0.55328,1.48384615 C0.55328,0.974044846 0.954432864,0.560769231 1.44928,0.560769231 L4.36128,0.560769231 C4.85612714,0.560769231 5.25728,0.974044846 5.25728,1.48384615 L5.25728,2.68846154 C5.25728,2.84777445 5.38264027,2.97692308 5.53728,2.97692308 L12.54848,2.97692308 C13.0433271,2.97692308 13.44448,3.39019869 13.44448,3.9 L13.44,10.5161538 Z" id="Shape" stroke="#B3BFC9" stroke-width="0.5" stroke-linecap="round" stroke-linejoin="round"></path>
                <path d="M10.7260274,6 L3.2739726,6 C3.12266171,6 3,6.22385763 3,6.5 C3,6.77614237 3.12266171,7 3.2739726,7 L10.7260274,7 C10.8773383,7 11,6.77614237 11,6.5 C11,6.22385763 10.8773383,6 10.7260274,6 Z" id="Shape"></path>
                <path d="M10.7260274,8 L3.2739726,8 C3.12266171,8 3,8.22385763 3,8.5 C3,8.77614237 3.12266171,9 3.2739726,9 L10.7260274,9 C10.8773383,9 11,8.77614237 11,8.5 C11,8.22385763 10.8773383,8 10.7260274,8 Z" id="Shape"></path>
            </g>
        </g>
    </g>
</svg>