<?xml version="1.0" encoding="UTF-8"?>
<svg width="12px" height="10px" viewBox="0 0 12 10" version="1.1" xmlns="http://www.w3.org/2000/svg" xmlns:xlink="http://www.w3.org/1999/xlink">
    <!-- Generator: sketchtool 48.1 (47250) - http://www.bohemiancoding.com/sketch -->
    <title>65A67F37-F77F-4F13-A8E5-4E7FCE929FE4</title>
    <desc>Created with sketchtool.</desc>
    <defs></defs>
    <g id="2_table_elements_2" stroke="none" stroke-width="1" fill="none" fill-rule="evenodd" transform="translate(-1609.000000, -343.000000)">
        <path d="M1619.94931,344.578938 L1610.00256,344.578938 C1609.44848,344.578938 1609,344.221046 1609,343.789469 C1609,343.35263 1609.44848,343 1610.00256,343 L1619.94931,343 C1620.50273,343 1620.95188,343.35263 1620.95188,343.789469 C1620.95188,344.221046 1620.50273,344.578938 1619.94931,344.578938 Z M1610.05069,348.78612 C1609.49727,348.78612 1609.04812,348.43349 1609.04812,347.99665 C1609.04812,347.559811 1609.49727,347.207181 1610.05069,347.207181 L1619.99744,347.207181 C1620.55152,347.207181 1621,347.559811 1621,347.99665 C1621,348.43349 1620.55152,348.78612 1619.99744,348.78612 L1610.05069,348.78612 Z M1619.94931,353 L1610.00256,353 C1609.44848,353 1609,352.642107 1609,352.210531 C1609,351.773691 1609.44848,351.421062 1610.00256,351.421062 L1619.94931,351.421062 C1620.50273,351.421062 1620.95188,351.773691 1620.95188,352.210531 C1620.95188,352.642107 1620.50273,353 1619.94931,353 Z" id="Edit" fill="#B3BFC9"></path>
    </g>
</svg>