<?xml version="1.0" encoding="UTF-8"?>
<svg width="18px" height="19px" viewBox="0 0 18 19" version="1.1" xmlns="http://www.w3.org/2000/svg" xmlns:xlink="http://www.w3.org/1999/xlink">
    <!-- Generator: sketchtool 48.2 (47327) - http://www.bohemiancoding.com/sketch -->
    <title>015144AC-6862-4118-BC8C-2B93FA09A312</title>
    <desc>Created with sketchtool.</desc>
    <defs></defs>
    <g id="Assets" stroke="none" stroke-width="1" fill="none" fill-rule="evenodd" transform="translate(-630.000000, -372.000000)">
        <g id="Calendar" transform="translate(630.000000, 372.000000)" fill="#B5BFCB">
            <path d="M16.5552632,16.4861053 C16.5505263,17.2961053 16.0152632,17.4301579 15.7026316,17.4377368 C15.7026316,17.4377368 2.93210526,17.4401053 2.37789474,17.4405789 C2.12684211,17.4405789 1.92789474,17.3704737 1.78578947,17.2316842 C1.58210526,17.0284737 1.47789474,16.6490526 1.47789474,16.1384211 C1.47789474,15.6742105 1.47789474,10.8937895 1.47789474,7.54957895 L16.56,7.54957895 C16.56,10.7621053 16.5647368,15.3502105 16.5552632,16.4861053 Z M1.47789474,4.29252632 C1.47789474,3.54931579 1.76210526,3.231 2.43,3.22721053 C2.49157895,3.22721053 3.00315789,3.22721053 3.79421053,3.22721053 L3.79421053,4.27121053 C3.79421053,4.66342105 4.11157895,4.98173684 4.50473684,4.98173684 C4.89315789,4.98173684 5.21526316,4.66342105 5.21526316,4.27121053 L5.21526316,3.22673684 C5.51842105,3.22673684 5.84052632,3.22673684 6.17684211,3.22673684 C8.25631579,3.22673684 10.8,3.22673684 12.7136842,3.22673684 L12.7136842,4.27121053 C12.7136842,4.66342105 13.0310526,4.98173684 13.4242105,4.98173684 C13.8173684,4.98173684 14.1347368,4.66342105 14.1347368,4.27121053 L14.1347368,3.22673684 C14.9921053,3.22673684 15.5415789,3.22721053 15.5605263,3.22721053 C15.9063158,3.23857895 16.1526316,3.32668421 16.3089474,3.49815789 C16.5315789,3.73689474 16.5647368,4.12436842 16.56,4.24610526 C16.56,4.26173684 16.56,4.27784211 16.56,4.29394737 C16.56,4.32094737 16.56,5.04568421 16.56,6.12852632 L1.47789474,6.12852632 C1.47789474,5.02768421 1.47789474,4.293 1.47789474,4.293 L1.47789474,4.29252632 Z M17.9810526,4.31052632 C17.9857895,4.11442105 17.9857895,3.23194737 17.37,2.55031579 C17.0763158,2.22773684 16.5363158,1.83742105 15.5842105,1.80615789 C15.4847368,1.80615789 14.94,1.80615789 14.1347368,1.80615789 L14.1347368,0.718578947 C14.1347368,0.325894737 13.8173684,0.00805263158 13.4242105,0.00805263158 C13.0310526,0.00805263158 12.7136842,0.325894737 12.7136842,0.718578947 L12.7136842,1.80615789 C10.4826316,1.80615789 7.42263158,1.80615789 5.21526316,1.80615789 L5.21526316,0.718578947 C5.21526316,0.325894737 4.89315789,0.00805263158 4.50473684,0.00805263158 C4.11157895,0.00805263158 3.79421053,0.325894737 3.79421053,0.718578947 L3.79421053,1.80615789 C2.99842105,1.80615789 2.48210526,1.80615789 2.42526316,1.80615789 C1.27894737,1.81278947 0.0521052632,2.46978947 0.0568421053,4.29394737 C0.0568421053,4.41142105 0.0615789474,15.4160526 0.0568421053,16.1351053 C0.0568421053,17.0474211 0.298421053,17.7546316 0.781578947,18.2368421 C1.19368421,18.6456316 1.74315789,18.8616316 2.37315789,18.8616316 C2.37789474,18.8616316 2.37789474,18.8616316 2.37789474,18.8616316 C2.93684211,18.8611579 15.7026316,18.8587895 15.6978947,18.8587895 C15.7026316,18.8587895 15.7026316,18.8587895 15.7026316,18.8587895 C16.6121053,18.8587895 17.9668421,18.2297368 17.9763158,16.4951053 C17.9905263,14.742 17.9810526,4.79984211 17.9810526,4.31052632 Z" id="8E"></path>
        </g>
    </g>
</svg>