<?xml version="1.0" encoding="UTF-8"?>
<svg width="9px" height="7px" viewBox="0 0 9 7" version="1.1" xmlns="http://www.w3.org/2000/svg" xmlns:xlink="http://www.w3.org/1999/xlink">
    <!-- Generator: Sketch 49 (51002) - http://www.bohemiancoding.com/sketch -->
    <title>Condirm</title>
    <desc>Created with Sketch.</desc>
    <defs></defs>
    <g id="Final" stroke="none" stroke-width="1" fill="none" fill-rule="evenodd">
        <g id="2_table_elements_2" transform="translate(-1247.000000, -407.000000)" fill="#E0E4E9">
            <g id="Group-7-Copy-2" transform="translate(1246.000000, 404.000000)">
                <g id="Group-8" transform="translate(5.500000, 5.000000) rotate(45.000000) translate(-5.500000, -5.000000) translate(3.000000, 1.000000)">
                    <path d="M4.85355339,7.85355339 C4.76307119,7.94403559 4.63807119,8 4.5,8 L0.5,8 C0.223857625,8 5.95417718e-14,7.77614237 5.95079541e-14,7.5 C5.94741364e-14,7.22385763 0.223857625,7 0.5,7 L4,7 L4,0.5 C4,0.223857625 4.22385763,7.64646868e-14 4.5,7.64139603e-14 C4.77614237,7.63632337e-14 5,0.223857625 5,0.5 L5,7.5 C5,7.63807119 4.94403559,7.76307119 4.85355339,7.85355339 Z" id="Condirm"></path>
                </g>
            </g>
        </g>
    </g>
</svg>