<?xml version="1.0" encoding="UTF-8"?>
<svg width="17px" height="20px" viewBox="0 0 17 20" version="1.1" xmlns="http://www.w3.org/2000/svg" xmlns:xlink="http://www.w3.org/1999/xlink">
    <!-- Generator: sketchtool 48.2 (47327) - http://www.bohemiancoding.com/sketch -->
    <title>90C6FB20-50EB-4C7C-81CE-587EE7F908A5</title>
    <desc>Created with sketchtool.</desc>
    <defs></defs>
    <g id="Assets" stroke="none" stroke-width="1" fill="none" fill-rule="evenodd" transform="translate(-631.000000, -455.000000)">
        <g id="Check-list" transform="translate(631.000000, 455.000000)" fill="#B5BFCB">
            <path d="M6.42461538,0 C2.56,0 2.76923077,0.0344615385 0.0369230769,0.0572307692 L0,1.90338462 C2.72,1.88061538 2.54153846,1.84615385 6.42461538,1.84615385 C7.83384615,1.84615385 8.94769231,2.25538462 9.74153846,3.06276923 C11.2246154,4.57292308 11.1938462,7.032 11.1938462,7.07692308 L11.1938462,10.4 C11.1938462,10.9101538 11.6061538,11.3230769 12.1169231,11.3230769 C12.6276923,11.3230769 13.04,10.9101538 13.04,10.4 L13.04,7.10030769 C13.04,6.96861538 13.0953846,3.85784615 11.0707692,1.78153846 C9.92,0.599384615 8.35692308,0 6.42461538,0 Z" id="10A" transform="translate(6.520075, 5.661538) scale(-1, -1) translate(-6.520075, -5.661538) "></path>
            <path d="M6.42461538,3.32307692 C2.56,3.32307692 2.76923077,3.35753846 0.0369230769,3.38030769 L0,5.22646154 C2.72,5.20369231 2.54153846,5.16923077 6.42461538,5.16923077 C7.83384615,5.16923077 8.94769231,5.57846154 9.74153846,6.38584615 C11.2246154,7.896 11.1938462,10.3550769 11.1938462,10.4 L11.1938462,17.7846154 C11.1938462,18.2947692 11.6061538,18.7076923 12.1169231,18.7076923 C12.6276923,18.7076923 13.04,18.2947692 13.04,17.7846154 L13.04,10.4233846 C13.04,10.2916923 13.0953846,7.18092308 11.0707692,5.10461538 C9.92,3.92246154 8.35692308,3.32307692 6.42461538,3.32307692 Z" id="10A-Copy" transform="translate(6.520075, 11.015385) scale(-1, -1) translate(-6.520075, -11.015385) "></path>
            <circle id="Oval-7" cx="14.6615385" cy="10.2153846" r="1.9692308"></circle>
            <circle id="Oval-7-Copy" cx="14.6615385" cy="17.6" r="1.9692308"></circle>
        </g>
    </g>
</svg>