<?xml version="1.0" encoding="UTF-8"?>
<svg width="15px" height="15px" viewBox="0 0 15 15" version="1.1" xmlns="http://www.w3.org/2000/svg" xmlns:xlink="http://www.w3.org/1999/xlink">
    <!-- Generator: sketchtool 48.2 (47327) - http://www.bohemiancoding.com/sketch -->
    <title>512EA1F0-EAD7-4233-86E8-6857336D3647</title>
    <desc>Created with sketchtool.</desc>
    <defs></defs>
    <g id="Main_screen3" stroke="none" stroke-width="1" fill="none" fill-rule="evenodd" transform="translate(-34.000000, -264.000000)">
        <g id="Group-15" transform="translate(10.000000, 211.000000)" fill="#B3BFC9" fill-rule="nonzero">
            <g id="noun_338128_cc" transform="translate(24.000000, 53.000000)">
                <polygon id="Shape" points="11 5.91489362 6.51474531 11 4 8.14893617 4.78820375 7.23404255 6.51474531 9.17021277 10.1930295 5"></polygon>
                <path d="M7.49995147,15 C3.35193362,15 0,11.627095 0,7.5 C0,3.35195531 3.3728832,0 7.49995147,0 C11.6270197,0 14.9999029,3.37290503 14.9999029,7.5 C15.0208525,11.627095 11.6479693,15 7.49995147,15 Z M7.5,1 C3.92715232,1 1,3.90562914 1,7.5 C1,11.0943709 3.90562914,14 7.5,14 C11.0728477,14 14,11.0943709 14,7.5 C14,3.90562914 11.0943709,1 7.5,1 Z" id="Shape"></path>
            </g>
        </g>
    </g>
</svg>