<?xml version="1.0" encoding="UTF-8"?>
<svg width="11px" height="11px" viewBox="0 0 11 11" version="1.1" xmlns="http://www.w3.org/2000/svg" xmlns:xlink="http://www.w3.org/1999/xlink">
    <!-- Generator: sketchtool 47.1 (45422) - http://www.bohemiancoding.com/sketch -->
    <title>EB1E1D22-46E1-48C8-ADD3-C46EB2B237AA</title>
    <desc>Created with sketchtool.</desc>
    <defs></defs>
    <g id="Final" stroke="none" stroke-width="1" fill="none" fill-rule="evenodd">
        <g id="1_Board_filter_2" transform="translate(-612.000000, -94.000000)" fill="#B3BFC9">
            <path d="M618.090909,98.9090909 L618.090909,93.5923637 C618.090909,93.2715235 617.82635,93 617.5,93 C617.183194,93 616.909091,93.2652103 616.909091,93.5923637 L616.909091,98.9090909 L611.592364,98.9090909 C611.271523,98.9090909 611,99.1736499 611,99.5 C611,99.8168058 611.26521,100.090909 611.592364,100.090909 L616.909091,100.090909 L616.909091,105.407636 C616.909091,105.728477 617.17365,106 617.5,106 C617.816806,106 618.090909,105.73479 618.090909,105.407636 L618.090909,100.090909 L623.407636,100.090909 C623.728477,100.090909 624,99.8263501 624,99.5 C624,99.1831942 623.73479,98.9090909 623.407636,98.9090909 L618.090909,98.9090909 Z" id="close" transform="translate(617.500000, 99.500000) rotate(45.000000) translate(-617.500000, -99.500000) "></path>
        </g>
    </g>
</svg>