<?xml version="1.0" encoding="UTF-8"?>
<svg width="14px" height="14px" viewBox="0 0 14 14" version="1.1" xmlns="http://www.w3.org/2000/svg" xmlns:xlink="http://www.w3.org/1999/xlink">
    <!-- Generator: sketchtool 48.1 (47250) - http://www.bohemiancoding.com/sketch -->
    <title>B37E5F93-564E-46E8-930C-7C1E44DA84F5</title>
    <desc>Created with sketchtool.</desc>
    <defs></defs>
    <g id="2_table_elements_2" stroke="none" stroke-width="1" fill="none" fill-rule="evenodd" transform="translate(-1632.000000, -341.000000)">
        <g id="Delete" transform="translate(1632.000000, 341.000000)" fill="#B3BFC9" fill-rule="nonzero">
            <path d="M12.2,3.2375 L13.336,3.2375 C13.6673708,3.2375 13.936,2.97633277 13.936,2.65416667 C13.936,2.33200056 13.6673708,2.07083333 13.336,2.07083333 L9.77,2.07083333 L9.502,1.16666667 C9.30562764,0.499188082 8.67808134,0.0390237333 7.964,0.0388888889 L6.036,0.0388888889 C5.32191866,0.0390237333 4.69437236,0.499188082 4.498,1.16666667 L4.23,2.07861111 L0.666,2.07861111 C0.33462915,2.07861111 0.066,2.33977834 0.066,2.66194444 C0.066,2.98411055 0.33462915,3.24527778 0.666,3.24527778 L1.8,3.24527778 L2.6,11.6666667 C2.71490764,12.976622 3.84777254,13.97974 5.2,13.9688889 L8.8,13.9688889 C10.1522275,13.97974 11.2850924,12.976622 11.4,11.6666667 L12.2,3.2375 Z M5.654,1.4875 C5.70304198,1.32080342 5.85966505,1.20580601 6.038,1.20555556 L7.964,1.20555556 C8.14233495,1.20580601 8.29895802,1.32080342 8.348,1.4875 L8.522,2.07083333 L5.478,2.07083333 L5.654,1.4875 Z M10.2,11.5675 C10.1326707,12.2694686 9.52515055,12.8052677 8.8,12.8022222 L5.2,12.8022222 C4.47484945,12.8052677 3.86732927,12.2694686 3.8,11.5675 L3,3.2375 L11,3.2375 L10.2,11.5675 Z" id="Shape"></path>
        </g>
    </g>
</svg>