<?xml version="1.0" encoding="UTF-8"?>
<svg width="15px" height="15px" viewBox="0 0 15 15" version="1.1" xmlns="http://www.w3.org/2000/svg" xmlns:xlink="http://www.w3.org/1999/xlink">
    <!-- Generator: sketchtool 48.2 (47327) - http://www.bohemiancoding.com/sketch -->
    <title>6557D39F-B36C-4ECF-8A76-62C583339B6E</title>
    <desc>Created with sketchtool.</desc>
    <defs></defs>
    <g id="2_table_task_2" stroke="none" stroke-width="1" fill="none" fill-rule="evenodd" transform="translate(-1038.000000, -919.000000)">
        <g id="10G" transform="translate(1038.000000, 919.000000)" fill="#B3BFC9">
            <path d="M9.815625,0.084375 C7.653125,0.084375 5.75625,1.434375 5.021875,3.421875 C4.653125,3.26875 4.325,3.203125 3.78125,3.203125 C1.81875,3.203125 0.225,4.796875 0.225,6.759375 C0.225,8.71875 1.81875,10.315625 3.78125,10.315625 L6.23125,10.315625 C6.4875,10.315625 6.7,10.103125 6.7,9.846875 C6.7,9.5875 6.4875,9.378125 6.23125,9.378125 L3.78125,9.378125 C2.3375,9.378125 1.1625,8.203125 1.1625,6.759375 C1.1625,5.315625 2.3375,4.140625 3.78125,4.140625 C4.34375,4.140625 4.534375,4.20625 5.09375,4.49375 C5.096875,4.49375 5.096875,4.49375 5.096875,4.49375 C5.115625,4.503125 5.134375,4.509375 5.153125,4.515625 C5.165625,4.51875 5.175,4.525 5.1875,4.528125 C5.190625,4.528125 5.190625,4.528125 5.19375,4.53125 C5.209375,4.534375 5.221875,4.534375 5.2375,4.5375 C5.25,4.5375 5.265625,4.540625 5.28125,4.54375 C5.296875,4.54375 5.315625,4.54375 5.33125,4.540625 C5.34375,4.540625 5.35625,4.540625 5.371875,4.5375 C5.3875,4.5375 5.403125,4.53125 5.421875,4.528125 C5.434375,4.525 5.446875,4.521875 5.459375,4.51875 C5.475,4.5125 5.4875,4.50625 5.503125,4.5 C5.515625,4.49375 5.528125,4.4875 5.540625,4.48125 C5.55625,4.471875 5.565625,4.4625 5.58125,4.453125 C5.590625,4.446875 5.603125,4.4375 5.615625,4.428125 C5.628125,4.415625 5.6375,4.403125 5.65,4.390625 C5.659375,4.38125 5.66875,4.371875 5.678125,4.3625 C5.690625,4.346875 5.7,4.328125 5.709375,4.309375 C5.715625,4.303125 5.721875,4.296875 5.725,4.2875 L5.725,4.284375 C5.734375,4.26875 5.740625,4.25 5.746875,4.23125 C5.75,4.21875 5.75625,4.20625 5.759375,4.19375 C5.759375,4.19375 5.7625,4.190625 5.7625,4.1875 C6.225,2.325 7.89375,1.021875 9.815625,1.021875 C12.11875,1.021875 13.99375,2.896875 13.99375,5.2 C13.99375,7.503125 12.11875,9.378125 9.815625,9.378125 C9.55625,9.378125 9.346875,9.5875 9.346875,9.846875 C9.346875,10.103125 9.55625,10.315625 9.815625,10.315625 C12.6375,10.315625 14.93125,8.01875 14.93125,5.2 C14.93125,2.38125 12.6375,0.084375 9.815625,0.084375" id="Fill-204"></path>
            <path d="M9.83125,11.575 L8.55625,12.878125 L8.55625,7.34375 C8.55625,7.084375 8.346875,6.875 8.0875,6.875 C7.83125,6.875 7.61875,7.084375 7.61875,7.34375 L7.61875,12.928125 L6.2625,11.546875 C6.171875,11.453125 6.05,11.40625 5.928125,11.40625 C5.809375,11.40625 5.690625,11.45 5.6,11.540625 C5.415625,11.721875 5.4125,12.01875 5.59375,12.203125 L7.73125,14.378125 C7.81875,14.46875 7.940625,14.51875 8.065625,14.51875 C8.190625,14.51875 8.3125,14.465625 8.4,14.378125 L10.503125,12.23125 C10.684375,12.046875 10.68125,11.75 10.496875,11.56875 C10.309375,11.3875 10.0125,11.390625 9.83125,11.575" id="Fill-205"></path>
        </g>
    </g>
</svg>