<?xml version="1.0" encoding="UTF-8"?>
<svg width="14px" height="15px" viewBox="0 0 14 15" version="1.1" xmlns="http://www.w3.org/2000/svg" xmlns:xlink="http://www.w3.org/1999/xlink">
    <!-- Generator: sketchtool 48.2 (47327) - http://www.bohemiancoding.com/sketch -->
    <title>B38E9DCE-C1F9-4550-AEA5-26203350B46A</title>
    <desc>Created with sketchtool.</desc>
    <defs></defs>
    <g id="Assets" stroke="none" stroke-width="1" fill="none" fill-rule="evenodd" transform="translate(-986.000000, -61.000000)">
        <g id="Edit" transform="translate(986.000000, 61.000000)" fill="#B3BFC9">
            <path d="M13.3280488,13.5621951 L0.768292683,13.5621951 C0.464634146,13.5621951 0.219512195,13.8073171 0.219512195,14.1109756 C0.219512195,14.4146341 0.464634146,14.6597561 0.768292683,14.6597561 L13.3280488,14.6597561 C13.6317073,14.6597561 13.8768293,14.4146341 13.8768293,14.1109756 C13.8768293,13.8073171 13.6317073,13.5621951 13.3280488,13.5621951 M1.34634146,9.24512195 L7.44878049,3.12073171 L9.01463415,4.6902439 L2.90487805,10.8036585 L1.34634146,10.8036585 L1.34634146,9.24512195 Z M9.12073171,1.44146341 L10.6939024,3.01463415 L9.79390244,3.91463415 L8.22439024,2.34512195 L9.12073171,1.44146341 Z M0.797560976,11.9012195 L3.13170732,11.9012195 C3.27804878,11.9012195 3.41707317,11.8426829 3.5195122,11.7402439 L11.8573171,3.40243902 C11.9597561,3.3 12.0182927,3.15731707 12.0182927,3.01463415 C12.0182927,2.86829268 11.9597561,2.72926829 11.8573171,2.62682927 L9.50853659,0.27804878 C9.40609756,0.175609756 9.26707317,0.117073171 9.12073171,0.117073171 C8.97439024,0.117073171 8.83536585,0.175609756 8.73292683,0.27804878 L0.409756098,8.6304878 C0.307317073,8.73658537 0.248780488,8.87560976 0.248780488,9.01829268 L0.248780488,11.352439 C0.248780488,11.6560976 0.493902439,11.9012195 0.797560976,11.9012195 Z" id="7H"></path>
        </g>
    </g>
</svg>