<?xml version="1.0" encoding="UTF-8"?>
<svg width="17px" height="17px" viewBox="0 0 17 17" version="1.1" xmlns="http://www.w3.org/2000/svg" xmlns:xlink="http://www.w3.org/1999/xlink">
    <!-- Generator: sketchtool 48.2 (47327) - http://www.bohemiancoding.com/sketch -->
    <title>74C7BC25-87FE-4CE3-AB42-554B8281B251</title>
    <desc>Created with sketchtool.</desc>
    <defs></defs>
    <g id="Table_filter" stroke="none" stroke-width="1" fill="none" fill-rule="evenodd" transform="translate(-1073.000000, -241.000000)">
        <g id="Group-2" transform="translate(1056.000000, 75.000000)" fill="#92A0B0" fill-rule="nonzero">
            <g id="edit" transform="translate(17.000000, 166.000000)">
                <g id="Group">
                    <path d="M0.754375,13.370075 C0.591175,13.370075 0.427975,13.308025 0.30345,13.1835 C0.0544,12.93445 0.0544,12.531125 0.30345,12.282075 L10.588025,1.9975 C10.837075,1.74845 11.2404,1.74845 11.48945,1.9975 C11.7385,2.24655 11.7385,2.649875 11.48945,2.898925 L1.2053,13.1835 C1.080775,13.3076 0.917575,13.370075 0.754375,13.370075 Z" id="Shape"></path>
                    <path d="M4.18795,16.80365 C4.02475,16.80365 3.86155,16.7416 3.737025,16.617075 C3.487975,16.368025 3.487975,15.9647 3.737025,15.71565 L14.021175,5.431075 C14.270225,5.182025 14.67355,5.182025 14.9226,5.431075 C15.17165,5.680125 15.17165,6.08345 14.9226,6.3325 L4.638875,16.617075 C4.51435,16.7416 4.35115,16.80365 4.18795,16.80365 Z" id="Shape"></path>
                    <path d="M4.18795,16.80365 C4.02475,16.80365 3.86155,16.7416 3.737025,16.617075 L0.30345,13.1835 C0.0544,12.93445 0.0544,12.531125 0.30345,12.282075 C0.5525,12.033025 0.955825,12.033025 1.204875,12.282075 L4.63845,15.71565 C4.8875,15.9647 4.8875,16.368025 4.63845,16.617075 C4.51435,16.7416 4.35115,16.80365 4.18795,16.80365 Z" id="Shape"></path>
                    <path d="M14.472525,6.519075 C14.309325,6.519075 14.146125,6.457025 14.0216,6.3325 L10.588025,2.89935 C10.338975,2.6503 10.338975,2.246975 10.588025,1.997925 C10.837075,1.748875 11.2404,1.748875 11.48945,1.997925 L14.923025,5.431075 C15.172075,5.680125 15.172075,6.08345 14.923025,6.3325 C14.7985,6.4566 14.635725,6.519075 14.472525,6.519075 Z" id="Shape"></path>
                    <path d="M0.754375,16.80365 C0.402475,16.80365 0.116875,16.51805 0.116875,16.16615 L0.116875,12.732575 C0.116875,12.380675 0.402475,12.095075 0.754375,12.095075 C1.106275,12.095075 1.391875,12.380675 1.391875,12.732575 L1.391875,16.16615 C1.391875,16.51805 1.1067,16.80365 0.754375,16.80365 Z" id="Shape"></path>
                    <path d="M4.18795,16.80365 L0.754375,16.80365 C0.402475,16.80365 0.116875,16.51805 0.116875,16.16615 C0.116875,15.81425 0.402475,15.52865 0.754375,15.52865 L4.18795,15.52865 C4.53985,15.52865 4.82545,15.81425 4.82545,16.16615 C4.82545,16.51805 4.540275,16.80365 4.18795,16.80365 Z" id="Shape"></path>
                    <path d="M11.03895,3.085925 C10.87575,3.085925 10.71255,3.023875 10.588025,2.89935 C10.338975,2.6503 10.338975,2.246975 10.588025,1.997925 L12.12355,0.461975 C12.3726,0.212925 12.775925,0.212925 13.024975,0.461975 C13.274025,0.7106 13.274025,1.11435 13.024975,1.3634 L11.48945,2.89935 C11.364925,3.02345 11.201725,3.085925 11.03895,3.085925 Z" id="Shape"></path>
                    <path d="M14.472525,6.519075 C14.309325,6.519075 14.146125,6.457025 14.0216,6.3325 C13.77255,6.08345 13.77255,5.680125 14.0216,5.431075 L15.557125,3.89555 C15.806175,3.6465 16.2095,3.6465 16.45855,3.89555 C16.7076,4.1446 16.7076,4.547925 16.45855,4.796975 L14.923025,6.3325 C14.7985,6.4566 14.635725,6.519075 14.472525,6.519075 Z" id="Shape"></path>
                    <path d="M16.00805,4.98355 C15.84485,4.98355 15.68165,4.9215 15.557125,4.796975 L12.15245,1.3923 C11.9034,1.14325 11.9034,0.739925 12.15245,0.490875 C12.4015,0.241825 12.804825,0.241825 13.053875,0.490875 L16.45855,3.89555 C16.7076,4.1446 16.7076,4.547925 16.45855,4.796975 C16.33445,4.921075 16.17125,4.98355 16.00805,4.98355 Z" id="Shape"></path>
                </g>
            </g>
        </g>
    </g>
</svg>