<?xml version="1.0" encoding="UTF-8"?>
<svg width="18px" height="24px" viewBox="0 0 18 24" version="1.1" xmlns="http://www.w3.org/2000/svg" xmlns:xlink="http://www.w3.org/1999/xlink">
    <!-- Generator: sketchtool 48.2 (47327) - http://www.bohemiancoding.com/sketch -->
    <title>3A2504E7-8604-4061-95F6-153885653C15</title>
    <desc>Created with sketchtool.</desc>
    <defs></defs>
    <g id="2_table_task_2" stroke="none" stroke-width="1" fill="none" fill-rule="evenodd" transform="translate(-687.000000, -929.000000)">
        <g id="Broken" transform="translate(688.000000, 930.000000)" fill="#FFFFFF" fill-rule="nonzero" stroke="#FFFFFF" stroke-width="0.5">
            <path d="M14.3777816,3.71917322e-06 L4.57333713,3.71917322e-06 C4.5142698,-0.000337782782 4.45749687,0.0228511604 4.41555935,0.0644481636 L0.0666704625,4.41333705 C0.023706871,4.45544778 -0.000347563018,4.51317843 3.79581472e-06,4.57333705 L3.79581472e-06,8.87555927 C0.000250334579,8.93494725 0.0242580968,8.99176562 0.0666704625,9.03333705 L2.28889268,11.2555593 C2.3306186,11.2976288 2.38741768,11.3212922 2.44667046,11.3212922 C2.50592325,11.3212922 2.56272233,11.2976288 2.60444824,11.2555593 L4.66889268,9.19333705 L6.73333713,11.2555593 C6.77506304,11.2976288 6.83186212,11.3212922 6.89111491,11.3212922 C6.95036769,11.3212922 7.00716677,11.2976288 7.04889268,11.2555593 L9.11333713,9.19333705 L11.1777816,11.2555593 C11.2195075,11.2976288 11.2763066,11.3212922 11.3355594,11.3212922 C11.3948121,11.3212922 11.4516112,11.2976288 11.4933371,11.2555593 L13.5577816,9.19333705 L15.622226,11.2555593 C15.6641635,11.2971563 15.7209365,11.3203452 15.7800038,11.3200037 C15.8097391,11.3194486 15.8391179,11.3134222 15.8666705,11.3022259 C15.9487827,11.2674483 16.0021533,11.1869549 16.002226,11.0977815 L16.002226,1.62444816 C16.0010019,0.727799796 15.2744299,0.00122781422 14.3777816,3.71917322e-06 Z M4.35111491,0.762225941 L4.35111491,3.17555927 C4.34988924,3.82638728 3.82194407,4.35333821 3.17111491,4.35333705 L0.760003796,4.35333705 L4.35111491,0.762225941 Z M15.5577816,10.5577815 L13.7177816,8.7177815 C13.6760557,8.67571202 13.6192566,8.65204854 13.5600038,8.65204854 C13.500751,8.65204854 13.4439519,8.67571202 13.402226,8.7177815 L11.3355594,10.7800037 L9.27111491,8.7177815 C9.229389,8.67571202 9.17258992,8.65204854 9.11333713,8.65204854 C9.05408434,8.65204854 8.99728526,8.67571202 8.95555935,8.7177815 L6.89111491,10.7800037 L4.82667046,8.7177815 C4.78494455,8.67571202 4.72814547,8.65204854 4.66889268,8.65204854 C4.6096399,8.65204854 4.55284082,8.67571202 4.51111491,8.7177815 L2.44667046,10.7800037 L0.446670462,8.78000372 L0.446670462,4.7977815 L3.17111491,4.7977815 C4.06689783,4.79656109 4.79311269,4.07133969 4.79555935,3.17555927 L4.79555935,0.448892608 L14.3777816,0.448892608 C14.6903276,0.447710951 14.9904778,0.571041919 15.2118995,0.791629556 C15.4333211,1.01221719 15.5577838,1.31189987 15.5577816,1.62444816 L15.5577816,10.5577815 Z M13.7177816,12.9400037 C13.6760557,12.8979342 13.6192566,12.8742708 13.5600038,12.8742708 C13.500751,12.8742708 13.4439519,12.8979342 13.402226,12.9400037 L11.3355594,15.0022259 L9.27111491,12.9400037 C9.229389,12.8979342 9.17258992,12.8742708 9.11333713,12.8742708 C9.05408434,12.8742708 8.99728526,12.8979342 8.95555935,12.9400037 L6.89111491,15.0022259 L4.82667046,12.9400037 C4.78494455,12.8979342 4.72814547,12.8742708 4.66889268,12.8742708 C4.6096399,12.8742708 4.55284082,12.8979342 4.51111491,12.9400037 L2.44667046,15.0022259 L0.382226018,12.9400037 C0.318650361,12.8759015 0.222611176,12.8566344 0.139230128,12.8912546 C0.0558490795,12.9258748 0.00170099069,13.0075004 0.00222601804,13.0977815 L0.00222601804,20.3488926 C0.00345213289,21.2464078 0.731376608,21.9733379 1.62889268,21.9733371 L14.3777816,21.9733371 C15.2744299,21.972113 16.0010019,21.245541 16.002226,20.3488926 L16.002226,15.3200037 C16.0019795,15.2606157 15.9779717,15.2037974 15.9355594,15.1622259 L13.7177816,12.9400037 Z M15.5577816,20.3488926 C15.5577821,20.6610547 15.4336243,20.9603992 15.212684,21.1809226 C14.9917437,21.401446 14.6921654,21.5250383 14.3800038,21.5244482 L1.62667046,21.5244482 C1.3141244,21.5256298 1.01397419,21.4022989 0.792552573,21.1817112 C0.571130956,20.9611236 0.446668229,20.6614409 0.446670462,20.3488926 L0.446670462,13.6377815 L2.28667046,15.4777815 C2.32839637,15.519851 2.38519545,15.5435145 2.44444824,15.5435145 C2.50370103,15.5435145 2.56050011,15.519851 2.60222602,15.4777815 L4.66889268,13.4155593 L6.73333713,15.4777815 C6.77506304,15.519851 6.83186212,15.5435145 6.89111491,15.5435145 C6.95036769,15.5435145 7.00716677,15.519851 7.04889268,15.4777815 L9.11333713,13.4155593 L11.1777816,15.4777815 C11.2195075,15.519851 11.2763066,15.5435145 11.3355594,15.5435145 C11.3948121,15.5435145 11.4516112,15.519851 11.4933371,15.4777815 L13.5577816,13.4155593 L15.5577816,15.4155593 L15.5577816,20.3488926 Z" id="Shape"></path>
        </g>
    </g>
</svg>