<?xml version="1.0" encoding="UTF-8"?>
<svg width="15px" height="11px" viewBox="0 0 15 11" version="1.1" xmlns="http://www.w3.org/2000/svg" xmlns:xlink="http://www.w3.org/1999/xlink">
    <!-- Generator: sketchtool 48.2 (47327) - http://www.bohemiancoding.com/sketch -->
    <title>830C47EF-AF5B-4E36-AD99-FD3C68830FA7</title>
    <desc>Created with sketchtool.</desc>
    <defs></defs>
    <g id="2_table_task_2" stroke="none" stroke-width="1" fill="none" fill-rule="evenodd" transform="translate(-1038.000000, -883.000000)">
        <g id="Eye" transform="translate(1038.000000, 883.000000)" fill="#B3BFC9" fill-rule="nonzero">
            <path d="M12.0428571,2.4 C9.53299246,-0.10674324 5.46700754,-0.10674324 2.95714286,2.4 L0,5.35714286 L2.95714286,8.31428571 C5.46700754,10.821029 9.53299246,10.821029 12.0428571,8.31428571 L15,5.35714286 L12.0428571,2.4 Z M11.2928571,7.55357143 C10.2878115,8.56116108 8.92314922,9.1274334 7.5,9.1274334 C6.07685078,9.1274334 4.71218853,8.56116108 3.70714286,7.55357143 L1.51071429,5.35714286 L3.70714286,3.21428571 C4.71218853,2.20669606 6.07685078,1.64042375 7.5,1.64042375 C8.92314922,1.64042375 10.2878115,2.20669606 11.2928571,3.21428571 L13.4892857,5.35714286 L11.2928571,7.55357143 Z" id="Shape"></path>
            <path d="M7.5,3.21428571 C6.31653268,3.21428571 5.35714286,4.17367554 5.35714286,5.35714286 C5.35714286,6.54061018 6.31653268,7.5 7.5,7.5 C8.68346732,7.5 9.64285714,6.54061018 9.64285714,5.35714286 C9.64285714,4.17367554 8.68346732,3.21428571 7.5,3.21428571 Z M7.5,6.42857143 C6.90826634,6.42857143 6.42857143,5.94887652 6.42857143,5.35714286 C6.42857143,4.7654092 6.90826634,4.28571429 7.5,4.28571429 C8.09173366,4.28571429 8.57142857,4.7654092 8.57142857,5.35714286 C8.57142857,5.94887652 8.09173366,6.42857143 7.5,6.42857143 Z" id="Shape"></path>
        </g>
    </g>
</svg>