<?xml version="1.0" encoding="UTF-8"?>
<svg width="20px" height="23px" viewBox="0 0 20 23" version="1.1" xmlns="http://www.w3.org/2000/svg" xmlns:xlink="http://www.w3.org/1999/xlink">
    <!-- Generator: sketchtool 48.2 (47327) - http://www.bohemiancoding.com/sketch -->
    <title>E9D2347D-10F2-421B-A2B0-4966EF23D687</title>
    <desc>Created with sketchtool.</desc>
    <defs></defs>
    <g id="Assets" stroke="none" stroke-width="1" fill="none" fill-rule="evenodd" transform="translate(-82.000000, -498.000000)">
        <g id="File" transform="translate(82.000000, 498.000000)" fill="#B5BFCB">
            <path d="M10.5623529,6.9 L5.29294118,6.9 C4.80529412,6.9 4.41058824,6.51475 4.41058824,6.0375 C4.41058824,5.56025 4.80529412,5.175 5.29294118,5.175 L10.5623529,5.175 C11.05,5.175 11.4447059,5.56025 11.4447059,6.0375 C11.4447059,6.51475 11.05,6.9 10.5623529,6.9 Z M14.0470588,10.51675 L5.29294118,10.51675 C4.80529412,10.51675 4.41058824,10.12575 4.41058824,9.65425 C4.41058824,9.177 4.80529412,8.79175 5.29294118,8.79175 L14.0470588,8.79175 C14.5341176,8.79175 14.9294118,9.177 14.9294118,9.65425 C14.9294118,10.12575 14.5341176,10.51675 14.0470588,10.51675 Z M14.0894118,14.12775 L5.33529412,14.12775 C4.84823529,14.12775 4.45294118,13.7425 4.45294118,13.26525 C4.45294118,12.788 4.84823529,12.40275 5.33529412,12.40275 L14.0894118,12.40275 C14.5770588,12.40275 14.9717647,12.788 14.9717647,13.26525 C14.9717647,13.7425 14.5770588,14.12775 14.0894118,14.12775 Z M14.0470588,17.7445 L5.29294118,17.7445 C4.80529412,17.7445 4.41058824,17.3535 4.41058824,16.882 C4.41058824,16.40475 4.80529412,16.0195 5.29294118,16.0195 L14.0470588,16.0195 C14.5341176,16.0195 14.9294118,16.40475 14.9294118,16.882 C14.9294118,17.3535 14.5341176,17.7445 14.0470588,17.7445 Z M2.39,1.748 C2.23058824,1.748 2.09588235,1.88025 2.09588235,2.0355 L2.09588235,20.7575 C2.09588235,20.91275 2.23058824,21.045 2.39,21.045 L17.0352941,21.045 C17.1947059,21.045 17.3294118,20.91275 17.3294118,20.7575 L17.3294118,2.0355 C17.3294118,1.88025 17.1947059,1.748 17.0352941,1.748 L2.39,1.748 Z M17.0352941,22.77 L2.39,22.77 C1.25470588,22.77 0.331176471,21.86725 0.331176471,20.7575 L0.331176471,2.0355 C0.331176471,0.92575 1.25470588,0.023 2.39,0.023 L17.0352941,0.023 C18.1705882,0.023 19.0941176,0.92575 19.0941176,2.0355 L19.0941176,20.7575 C19.0941176,21.86725 18.1705882,22.77 17.0352941,22.77 Z" id="5H"></path>
        </g>
    </g>
</svg>