<?xml version="1.0" encoding="UTF-8"?>
<svg width="20px" height="18px" viewBox="0 0 20 18" version="1.1" xmlns="http://www.w3.org/2000/svg" xmlns:xlink="http://www.w3.org/1999/xlink">
    <!-- Generator: sketchtool 48.2 (47327) - http://www.bohemiancoding.com/sketch -->
    <title>AA38FDD2-1DA5-4E83-A27B-CC1143F95CEC</title>
    <desc>Created with sketchtool.</desc>
    <defs></defs>
    <g id="Assets" stroke="none" stroke-width="1" fill="none" fill-rule="evenodd" transform="translate(-629.000000, -414.000000)">
        <path d="M635.87369,422.752158 C635.547155,425.093452 635.689883,428.109216 636.09593,429.814952 C638.076537,430.039716 643.621454,430.074725 644.837766,429.901587 C644.883924,429.895016 644.927633,429.890225 644.991425,429.884139 C645.21631,429.862685 645.280994,429.853218 645.362976,429.826441 C645.624741,429.740944 645.782579,429.455991 645.74045,428.544904 C645.729933,428.31745 645.844016,428.100775 646.042751,427.970751 C646.678887,427.554555 646.771744,427.114158 646.514657,426.285183 C646.398103,425.909358 646.650677,425.52073 647.059498,425.44685 C647.297723,425.403799 647.556687,424.356961 647.319561,424.164986 C647.00306,423.908749 646.990772,423.45163 647.293101,423.180682 C647.420254,423.066727 647.586899,422.652869 647.587191,422.336099 C647.587738,421.74371 647.408735,421.527636 646.798968,421.430943 C646.380266,421.364547 645.90188,421.32193 645.375954,421.301371 C644.502319,421.267218 643.558924,421.294711 642.636828,421.36158 C642.41159,421.377914 642.205709,421.395391 642.023739,421.41282 C641.91585,421.423154 641.840833,421.431064 641.803215,421.435356 C641.519614,421.467709 641.243209,421.336245 641.102862,421.102252 C641.059354,421.029714 641.028836,420.947165 641.009084,420.852741 C640.922875,420.44062 641.017846,419.670643 641.387681,418.333325 C641.734473,417.07933 640.819865,415.84107 639.720193,415.376496 C639.563498,415.310297 639.474027,415.317348 639.382948,415.427211 C639.395808,415.736786 639.402066,416.050988 639.398056,416.346894 C639.394678,416.59623 639.384066,416.820204 639.364635,417.014552 C639.243654,418.224538 639.001877,418.916723 638.265604,420.251286 C638.002988,420.725113 637.605109,421.207223 637.10678,421.694799 C636.803395,421.991637 636.4805,422.272936 636.157664,422.531101 C636.048934,422.61805 635.953112,422.692234 635.87369,422.752158 Z M635.557097,421.258828 C635.739088,421.103176 635.91793,420.940725 636.088167,420.774162 C636.50126,420.369984 636.822097,419.981225 637.015104,419.632982 C637.669658,418.446528 637.855663,417.914013 637.958031,416.890183 C637.973438,416.736087 637.982433,416.546231 637.985363,416.329966 C637.989023,416.059901 637.9832,415.767519 637.971217,415.479071 C637.965521,415.341946 637.959867,415.237947 637.956216,415.18116 C637.947635,415.047681 637.982091,414.914874 638.05508,414.80011 C638.1287,414.684352 638.248195,414.541448 638.422773,414.400271 C638.919819,413.998323 639.581824,413.861552 640.299158,414.164601 C641.961459,414.866868 643.303612,416.683968 642.755007,418.667714 C642.596637,419.240379 642.494706,419.695229 642.439978,420.043461 C642.469069,420.041269 642.498479,420.039094 642.528201,420.036939 C643.501515,419.966356 644.497821,419.937321 645.434635,419.973943 C646.015856,419.996664 646.551681,420.044398 647.033891,420.120865 C648.348583,420.329342 649.001125,421.11702 648.999999,422.337252 C648.999586,422.784632 648.858755,423.278821 648.636419,423.669425 C649.041872,424.529131 648.741158,425.819812 648.001285,426.430298 C648.183017,427.39433 647.958772,428.188894 647.157517,428.837772 C647.137216,430.071622 646.672974,430.805002 645.826517,431.08147 C645.696054,431.124081 645.564585,431.153002 645.423429,431.173661 C645.333797,431.186779 645.322878,431.187912 645.134022,431.205929 C645.091643,431.209972 645.066754,431.2127 645.049217,431.215196 C643.755173,431.3994 638.547699,431.377345 636.195862,431.159197 C636.121943,431.246487 636.02366,431.317378 635.905846,431.361681 C633.976488,432.087203 633.310397,432.143623 630.220379,431.78433 C629.943581,431.752145 629.712833,431.569819 629.631423,431.318964 C628.743761,428.583762 628.855276,425.571817 629.572768,421.532375 C629.641562,421.145067 630.050681,420.898095 630.453792,421.000528 C632.051615,421.406545 633.098508,421.441855 635.227408,421.219766 C635.344448,421.207556 635.456341,421.222601 635.557097,421.258828 Z M630.845516,422.457877 C630.306626,425.748064 630.234477,428.290185 630.858194,430.51885 C632.977543,430.755592 633.620993,430.738784 634.779747,430.345417 C634.287575,428.491232 634.11355,425.209361 634.466655,422.62479 C633.032862,422.736051 632.02272,422.696427 630.845516,422.457877 Z" id="Like" fill="#B5BFCB" fill-rule="nonzero"></path>
    </g>
</svg>