<?xml version="1.0" encoding="UTF-8"?>
<svg width="16px" height="17px" viewBox="0 0 16 17" version="1.1" xmlns="http://www.w3.org/2000/svg" xmlns:xlink="http://www.w3.org/1999/xlink">
    <!-- Generator: sketchtool 48.2 (47327) - http://www.bohemiancoding.com/sketch -->
    <title>6665CE61-4483-4951-ADBE-97D6AB9D8B9D</title>
    <desc>Created with sketchtool.</desc>
    <defs></defs>
    <g id="Table_filter" stroke="none" stroke-width="1" fill="none" fill-rule="evenodd" transform="translate(-1074.000000, -184.000000)">
        <g id="Group-2" transform="translate(1056.000000, 75.000000)" fill="#92A0B0" fill-rule="nonzero" stroke="#92A0B0" stroke-width="0.3">
            <g id="man" transform="translate(19.000000, 109.000000)">
                <g id="Group">
                    <path d="M13.935,16.7975 L0.065,16.7975 L0.065,15.1175 C0.065,11.8037915 2.7512915,9.1175 6.065,9.1175 L7.935,9.1175 C11.2487085,9.1175 13.935,11.8037915 13.935,15.1175 L13.935,16.7975 Z M1.065,15.7975 L12.935,15.7975 L12.935,15.1175 C12.935,12.3560763 10.6964237,10.1175 7.935,10.1175 L6.065,10.1175 C3.30357625,10.1175 1.065,12.3560763 1.065,15.1175 L1.065,15.7975 Z" id="Shape"></path>
                    <path d="M7,8.625 C5.29597535,8.6249997 3.75978707,7.59838631 3.10791886,6.023976 C2.45605066,4.44956569 2.81691272,2.63749835 4.0221977,1.43292867 C5.22748268,0.228358992 7.03976393,-0.131427281 8.61378699,0.521375457 C10.18781,1.1741782 11.2135113,2.71097565 11.2125,4.415 C11.2083682,6.73938096 9.324383,8.62224803 7,8.625 Z M7,1.2 C5.2261108,1.20000054 3.78796088,2.63777817 3.78750108,4.41166732 C3.78704129,6.18555646 5.22444566,7.62407944 6.99833463,7.62499957 C8.7722236,7.62591969 10.2111195,6.18888867 10.2125,4.415 C10.2111213,2.64135661 8.77364339,1.20387866 7,1.2025 L7,1.2 Z" id="Shape"></path>
                </g>
            </g>
        </g>
    </g>
</svg>