<?xml version="1.0" encoding="UTF-8"?>
<svg width="18px" height="4px" viewBox="0 0 18 4" version="1.1" xmlns="http://www.w3.org/2000/svg" xmlns:xlink="http://www.w3.org/1999/xlink">
    <!-- Generator: sketchtool 48.2 (47327) - http://www.bohemiancoding.com/sketch -->
    <title>88F8EAD7-B161-4223-A649-A06C6A5E10FB</title>
    <desc>Created with sketchtool.</desc>
    <defs></defs>
    <g id="Assets" stroke="none" stroke-width="1" fill="none" fill-rule="evenodd" transform="translate(-630.000000, -581.000000)">
        <path d="M632,585 C630.895431,585 630,584.104569 630,583 C630,581.895431 630.895431,581 632,581 C633.104569,581 634,581.895431 634,583 C634,584.104569 633.104569,585 632,585 Z M639,585 C637.895431,585 637,584.104569 637,583 C637,581.895431 637.895431,581 639,581 C640.104569,581 641,581.895431 641,583 C641,584.104569 640.104569,585 639,585 Z M646,585 C644.895431,585 644,584.104569 644,583 C644,581.895431 644.895431,581 646,581 C647.104569,581 648,581.895431 648,583 C648,584.104569 647.104569,585 646,585 Z" id="More" fill="#B5BFCB"></path>
    </g>
</svg>