<?xml version="1.0" encoding="UTF-8"?>
<svg width="20px" height="20px" viewBox="0 0 20 20" version="1.1" xmlns="http://www.w3.org/2000/svg" xmlns:xlink="http://www.w3.org/1999/xlink">
    <!-- Generator: sketchtool 48.2 (47327) - http://www.bohemiancoding.com/sketch -->
    <title>6BC02520-EFA9-4887-A925-A01A5D99577A</title>
    <desc>Created with sketchtool.</desc>
    <defs></defs>
    <g id="Assets" stroke="none" stroke-width="1" fill="none" fill-rule="evenodd" transform="translate(-629.000000, -330.000000)">
        <path d="M642.072727,337.108052 L637.401558,341.721039 L636.128831,340.265974 C635.845714,339.942338 635.353247,339.909091 635.029091,340.192727 C634.704935,340.476364 634.672208,340.968312 634.955844,341.292468 L636.774026,343.37039 C636.915325,343.531948 637.117403,343.628052 637.331948,343.635844 C637.341818,343.636364 637.351169,343.636364 637.360519,343.636364 C637.565195,343.636364 637.762078,343.555844 637.908052,343.411948 L643.167792,338.217143 C643.473766,337.914286 643.476883,337.420779 643.174545,337.114805 C642.872208,336.808831 642.378701,336.805714 642.072727,337.108052 M639,348.441558 C634.344935,348.441558 630.558442,344.655065 630.558442,340 C630.558442,335.345455 634.344935,331.558442 639,331.558442 C643.654545,331.558442 647.441558,335.345455 647.441558,340 C647.441558,344.655065 643.654545,348.441558 639,348.441558 Z M639,330 C633.485714,330 629,334.486234 629,340 C629,345.513766 633.485714,350 639,350 C644.513766,350 649,345.513766 649,340 C649,334.486234 644.513766,330 639,330 Z" id="Ok" fill="#B5BFCB"></path>
    </g>
</svg>