<svg xmlns="http://www.w3.org/2000/svg" xmlns:xlink="http://www.w3.org/1999/xlink" viewBox="0 0 50 50" version="1.1">
    <g id="surface1">
        <path style=" " d="M 25.4375 0 C 25.015625 0.0078125 24.601563 0.0742188 24.1875 0.1875 C 22.167969 0.734375 20.488281 1.804688 19.5 3.75 C 18.511719 5.695313 18.125 8.378906 18.125 12.28125 L 18.125 14 C 16.074219 14.757813 13.09375 15.875 13.09375 15.875 C 13.074219 15.882813 13.050781 15.894531 13.03125 15.90625 C 12.296875 16.25 11.433594 16.554688 10.59375 17.125 C 10.566406 17.144531 10.527344 17.136719 10.5 17.15625 C 10.445313 17.183594 10.394531 17.214844 10.34375 17.25 C 10.289063 17.285156 10.234375 17.328125 10.1875 17.375 C 10.128906 17.421875 10.058594 17.414063 10 17.46875 C 8.992188 18.40625 8.355469 19.949219 8.0625 22.625 L 6 44.09375 C 5.976563 44.398438 6.089844 44.699219 6.3125 44.90625 C 10.007813 48.3125 16.28125 49.96875 16.28125 49.96875 C 16.523438 50.027344 16.78125 49.996094 17 49.875 L 41.1875 37.4375 C 41.523438 37.273438 41.742188 36.9375 41.75 36.5625 C 41.75 32.144531 41.070313 27.953125 41.0625 27.90625 C 41.394531 27.613281 42.1875 26.96875 42.1875 26.96875 C 42.410156 26.761719 42.523438 26.460938 42.5 26.15625 C 42.5 26.15625 41.664063 18.003906 40.0625 13.53125 C 39.230469 11.210938 37.792969 9.796875 36.21875 9.15625 C 35.429688 8.835938 34.648438 8.6875 33.875 8.6875 C 33.101563 8.6875 32.351563 8.824219 31.6875 9.03125 C 31.566406 9.070313 30.980469 9.292969 30.75 9.375 L 30.75 7.65625 C 30.75 4.871094 30.070313 2.785156 28.84375 1.46875 C 28.230469 0.8125 27.496094 0.371094 26.6875 0.15625 C 26.285156 0.0507813 25.859375 -0.0078125 25.4375 0 Z M 25.46875 2 C 26.191406 1.972656 26.8125 2.238281 27.375 2.84375 C 28.125 3.648438 28.75 5.199219 28.75 7.65625 L 28.75 10.09375 C 28.492188 10.1875 28.476563 10.175781 28.1875 10.28125 C 26.382813 10.941406 24.109375 11.796875 21.875 12.625 C 20.984375 12.953125 20.972656 12.96875 20.125 13.28125 L 20.125 12.28125 C 20.125 8.519531 20.542969 6.109375 21.28125 4.65625 C 22.019531 3.203125 23.027344 2.582031 24.71875 2.125 C 24.984375 2.054688 25.226563 2.007813 25.46875 2 Z M 33.84375 10.6875 C 34.390625 10.6875 34.945313 10.789063 35.46875 11 C 36.511719 11.425781 37.507813 12.320313 38.1875 14.21875 C 39.519531 17.933594 40.34375 25.035156 40.4375 25.84375 C 39.898438 26.332031 36.34375 29.515625 32.53125 31.25 C 25.203125 34.582031 20.835938 35.59375 19.53125 35.875 C 19.429688 34.199219 19.015625 27.542969 17.875 22.65625 C 17.207031 19.800781 15.574219 18.335938 14.0625 17.65625 C 14.167969 17.617188 16.582031 16.730469 17.875 16.25 C 18.175781 16.621094 18.761719 16.875 19.46875 16.875 C 20.46875 16.875 21.28125 16.347656 21.28125 15.71875 C 21.28125 15.480469 21.195313 15.277344 21 15.09375 C 21.75 14.816406 21.761719 14.796875 22.5625 14.5 C 24.421875 13.8125 26.191406 13.128906 27.8125 12.53125 C 28.085938 12.941406 28.75 13.21875 29.5 13.21875 C 30.5 13.21875 31.3125 12.691406 31.3125 12.0625 C 31.3125 11.8125 31.183594 11.59375 30.96875 11.40625 C 31.355469 11.269531 32.195313 10.964844 32.28125 10.9375 C 32.761719 10.785156 33.296875 10.6875 33.84375 10.6875 Z M 11.875 19.0625 C 12.179688 19.078125 12.578125 19.15625 13.0625 19.34375 C 13.867188 19.65625 14.746094 20.226563 15.375 21.53125 L 15.40625 47.53125 C 13.667969 46.917969 10.3125 45.589844 8.0625 43.6875 L 10.0625 22.84375 L 10.0625 22.8125 C 10.3125 20.550781 10.785156 19.617188 11.28125 19.09375 C 11.355469 19.085938 11.570313 19.046875 11.875 19.0625 Z M 39.25 29.40625 C 39.421875 30.636719 39.671875 32.964844 39.71875 35.96875 L 17.40625 47.4375 L 17.375 34.0625 C 17.519531 35.8125 17.625 37.1875 17.625 37.1875 C 17.648438 37.472656 17.789063 37.734375 18.015625 37.90625 C 18.242188 38.078125 18.53125 38.148438 18.8125 38.09375 C 18.8125 38.09375 22.589844 37.386719 28.53125 35.09375 C 28.988281 36.09375 30.152344 36.503906 31.34375 36 C 32.539063 35.496094 33.351563 34.265625 33.28125 33.09375 C 33.3125 33.078125 33.34375 33.078125 33.375 33.0625 C 35.566406 32.066406 37.640625 30.632813 39.25 29.40625 Z "></path>
    </g>
</svg>