<?xml version="1.0" encoding="UTF-8"?>
<svg width="14px" height="14px" viewBox="0 0 14 14" version="1.1" xmlns="http://www.w3.org/2000/svg" xmlns:xlink="http://www.w3.org/1999/xlink">
    <!-- Generator: Sketch 48.2 (47327) - http://www.bohemiancoding.com/sketch -->
    <title>icon_1</title>
    <desc>Created with Sketch.</desc>
    <defs></defs>
    <g id="2_table_task_2" stroke="none" stroke-width="1" fill="none" fill-rule="evenodd" transform="translate(-689.000000, -858.000000)">
        <g id="Plus" transform="translate(689.000000, 858.000000)" fill="#D3D9DE">
            <path d="M8,6 L13,6 C13.5522847,6 14,6.44771525 14,7 C14,7.55228475 13.5522847,8 13,8 L8,8 L8,13 C8,13.5522847 7.55228475,14 7,14 C6.44771525,14 6,13.5522847 6,13 L6,8 L1,8 C0.44771525,8 0,7.55228475 0,7 C0,6.44771525 0.44771525,6 1,6 L6,6 L6,1 C6,0.44771525 6.44771525,1.01453063e-16 7,0 C7.55228475,-1.01453063e-16 8,0.44771525 8,1 L8,6 Z" id="icon_1"></path>
        </g>
    </g>
</svg>