<?xml version="1.0" encoding="UTF-8"?>
<svg width="15px" height="15px" viewBox="0 0 15 15" version="1.1" xmlns="http://www.w3.org/2000/svg" xmlns:xlink="http://www.w3.org/1999/xlink">
    <!-- Generator: sketchtool 48.2 (47327) - http://www.bohemiancoding.com/sketch -->
    <title>4BAA70F1-F664-4816-BFDB-72EF9DCA4C22</title>
    <desc>Created with sketchtool.</desc>
    <defs></defs>
    <g id="2_table_task_2" stroke="none" stroke-width="1" fill="none" fill-rule="evenodd" transform="translate(-846.000000, -881.000000)">
        <g id="4B" transform="translate(846.000000, 881.000000)" fill="#B3BFC9">
            <path d="M10.0319231,6.82365385 L7.98076923,6.82365385 L7.98076923,4.7725 C7.98076923,4.45365385 7.72230769,4.19557692 7.40384615,4.19557692 C7.085,4.19557692 6.82692308,4.45365385 6.82692308,4.7725 L6.82692308,6.82365385 L4.77576923,6.82365385 C4.45692308,6.82365385 4.19884615,7.08173077 4.19884615,7.40057692 C4.19884615,7.71942308 4.45692308,7.9775 4.77576923,7.9775 L6.82692308,7.9775 L6.82692308,10.0286538 C6.82692308,10.3475 7.085,10.6055769 7.40384615,10.6055769 C7.72230769,10.6055769 7.98076923,10.3475 7.98076923,10.0286538 L7.98076923,7.9775 L10.0319231,7.9775 C10.3503846,7.9775 10.6088462,7.71942308 10.6088462,7.40057692 C10.6088462,7.08173077 10.3503846,6.82365385 10.0319231,6.82365385 M11.8230769,11.8198077 C10.6426923,13.0005769 9.07346154,13.6505769 7.40384615,13.6505769 C5.73423077,13.6505769 4.165,13.0005769 2.98423077,11.8198077 C1.80384615,10.6394231 1.15384615,9.06980769 1.15384615,7.40057692 C1.15384615,5.73096154 1.80384615,4.16173077 2.98423077,2.98096154 C4.20269231,1.7625 5.80346154,1.15326923 7.40384615,1.15326923 C9.00423077,1.15326923 10.6046154,1.7625 11.8230769,2.98096154 C14.26,5.41788462 14.26,9.38288462 11.8230769,11.8198077 Z M12.6392308,2.16519231 C9.75230769,-0.721730769 5.05538462,-0.721730769 2.16846154,2.16519231 C0.77,3.56365385 0,5.42288462 0,7.40057692 C0,9.37826923 0.77,11.2375 2.16846154,12.6355769 C3.56692308,14.0344231 5.42615385,14.8044231 7.40384615,14.8044231 C9.38153846,14.8044231 11.2407692,14.0344231 12.6392308,12.6355769 C15.5257692,9.74903846 15.5257692,5.05211538 12.6392308,2.16519231 Z"></path>
        </g>
    </g>
</svg>