<svg width="14px" height="19px" viewBox="0 0 14 19" version="1.1" xmlns="http://www.w3.org/2000/svg" xmlns:xlink="http://www.w3.org/1999/xlink">
    <g id="Assets" stroke="none" stroke-width="1" fill="none" fill-rule="evenodd" transform="translate(-329.000000, -746.000000)" opacity="0.899999976">
        <g id="Group-Copy-3" transform="translate(337.500000, 755.500000) rotate(26.000000) translate(-337.500000, -755.500000) translate(331.000000, 745.000000)" fill="#FFFFFF" fill-rule="nonzero">
            <path d="M6.84086658,17.0150202 C6.90293554,17.2650202 6.84086658,17.5566869 6.65465968,17.7858536 L6.05465968,18.5566869 L5.47534933,17.8066869 C5.30983209,17.5775202 5.24776313,17.3066869 5.28914244,17.0358536 C4.42017692,17.3900202 4.1512114,18.4941869 4.7512114,19.2233536 L6.03397002,20.7858536 L7.35810795,19.1816869 C7.95810795,18.4733536 7.68914244,17.3900202 6.84086658,17.0150202 Z" id="Shape" transform="translate(6.055170, 18.900437) rotate(1.000000) translate(-6.055170, -18.900437) "></path>
            <path d="M9.22017692,10.3066869 L9.5512114,7.18168692 C9.67534933,5.95252025 9.34431485,4.72335358 8.59948727,3.72335358 L6.82017692,1.39002025 C6.44776313,0.89002025 5.68224589,0.89002025 5.30983209,1.39002025 L3.53052175,3.72335358 C2.78569416,4.70252025 2.43397002,5.93168692 2.57879761,7.18168692 L2.90983209,10.3066869 C1.25465968,11.3900202 0.158107955,13.2441869 0.158107955,15.3691869 L0.158107955,15.9108536 C0.158107955,16.1816869 0.406383817,16.3900202 0.675349334,16.3275202 L4.23397002,15.6400202 L4.23397002,16.2233536 C4.23397002,16.4108536 4.37879761,16.5358536 4.54431485,16.5358536 L7.60638382,16.5358536 C7.77190106,16.5358536 7.91672864,16.3900202 7.91672864,16.2233536 L7.91672864,15.6400202 L11.4753493,16.3275202 C11.7443149,16.3691869 11.9925907,16.1816869 11.9925907,15.9108536 L11.9925907,15.3691869 C11.9719011,13.2441869 10.8753493,11.3691869 9.22017692,10.3066869 Z M6.05465968,7.36918692 C5.26845278,7.36918692 4.60638382,6.72335358 4.60638382,5.91085358 C4.60638382,5.11918692 5.24776313,4.45252025 6.05465968,4.45252025 C6.84086658,4.45252025 7.50293554,5.09835358 7.50293554,5.91085358 C7.50293554,6.72335358 6.84086658,7.36918692 6.05465968,7.36918692 Z" id="Shape" transform="translate(6.075349, 8.775437) rotate(1.000000) translate(-6.075349, -8.775437) "></path>
        </g>
    </g>
</svg>