<?xml version="1.0" encoding="UTF-8"?>
<svg width="16px" height="15px" viewBox="0 0 16 15" version="1.1" xmlns="http://www.w3.org/2000/svg" xmlns:xlink="http://www.w3.org/1999/xlink">
    <!-- Generator: sketchtool 48.2 (47327) - http://www.bohemiancoding.com/sketch -->
    <title>8724C86D-A97A-4C0E-9C20-0421525921C7</title>
    <desc>Created with sketchtool.</desc>
    <defs></defs>
    <g id="2_table_task_2" stroke="none" stroke-width="1" fill="none" fill-rule="evenodd" transform="translate(-1037.000000, -955.000000)">
        <g id="3H" transform="translate(1037.000000, 955.000000)" fill="#B3BFC9">
            <path d="M11.8097368,6.68684211 C12.1369737,6.68684211 12.4018421,6.95131579 12.4018421,7.27894737 C12.4018421,7.60657895 12.1369737,7.87105263 11.8097368,7.87105263 L3.74171053,7.87105263 C3.41447368,7.87105263 3.14960526,7.60657895 3.14960526,7.27894737 C3.14960526,6.95131579 3.41447368,6.68684211 3.74171053,6.68684211 L11.8097368,6.68684211 Z M11.8097368,3.675 C12.1369737,3.675 12.4018421,3.93947368 12.4018421,4.26710526 C12.4018421,4.59078947 12.1369737,4.85921053 11.8097368,4.85921053 L3.74171053,4.85921053 C3.41447368,4.85921053 3.14960526,4.59078947 3.14960526,4.26710526 C3.14960526,3.93947368 3.41447368,3.675 3.74171053,3.675 L11.8097368,3.675 Z M14.4248684,9.98289474 C14.4248684,10.0223684 14.3482895,10.0973684 14.2275,10.0973684 L7.22092105,10.0973684 C7.21144737,10.0973684 7.20276316,10.0973684 7.19328947,10.0973684 C7.17236842,10.1013158 7.15184211,10.1013158 7.13092105,10.1052632 C7.11276316,10.1092105 7.09460526,10.1131579 7.07644737,10.1171053 C7.0575,10.1210526 7.03934211,10.1289474 7.02078947,10.1328947 C7.00223684,10.1407895 6.98447368,10.1486842 6.96671053,10.1565789 C6.95013158,10.1644737 6.93434211,10.1723684 6.91855263,10.1802632 C6.9,10.1921053 6.88263158,10.2039474 6.86565789,10.2197368 C6.85815789,10.2236842 6.85026316,10.2276316 6.84315789,10.2315789 L3.47092105,13.0302632 L3.47092105,10.6894737 C3.47092105,10.3618421 3.20605263,10.0973684 2.87881579,10.0973684 L1.39855263,10.0973684 C1.27815789,10.0973684 1.20118421,10.0223684 1.20118421,9.98289474 L1.20118421,1.53552632 C1.20118421,1.49605263 1.27815789,1.425 1.39855263,1.425 L14.2275,1.425 C14.3482895,1.425 14.4248684,1.49605263 14.4248684,1.53552632 L14.4248684,9.98289474 Z M14.2275,0.240789474 L1.39855263,0.240789474 C0.637105263,0.240789474 0.0169736842,0.821052632 0.0169736842,1.53552632 L0.0169736842,9.98289474 C0.0169736842,10.7013158 0.637105263,11.2815789 1.39855263,11.2815789 L2.28671053,11.2815789 L2.28671053,14.2894737 C2.28671053,14.5184211 2.41934211,14.7276316 2.62736842,14.8263158 C2.7075,14.8657895 2.79355263,14.8815789 2.87881579,14.8815789 C3.01460526,14.8815789 3.14881579,14.8342105 3.25697368,14.7473684 L7.43447368,11.2815789 L14.2275,11.2815789 C14.9893421,11.2815789 15.6090789,10.7013158 15.6090789,9.98289474 L15.6090789,1.53552632 C15.6090789,0.821052632 14.9893421,0.240789474 14.2275,0.240789474 Z"></path>
        </g>
    </g>
</svg>