<?xml version="1.0" encoding="UTF-8"?>
<svg width="14px" height="14px" viewBox="0 0 14 14" version="1.1" xmlns="http://www.w3.org/2000/svg" xmlns:xlink="http://www.w3.org/1999/xlink">
    <!-- Generator: sketchtool 48.1 (47250) - http://www.bohemiancoding.com/sketch -->
    <title>A2E0C833-0F54-4E02-8345-D0FCC502470B</title>
    <desc>Created with sketchtool.</desc>
    <defs></defs>
    <g id="2_table_elements_2" stroke="none" stroke-width="1" fill="none" fill-rule="evenodd" transform="translate(-1837.000000, -73.000000)">
        <g id="Save" transform="translate(1837.000000, 73.000000)" fill="#B3BFC9" fill-rule="nonzero">
            <path d="M2.1,1.225 C1.61675084,1.225 1.225,1.61675084 1.225,2.1 L1.225,11.9 C1.225,12.3832492 1.61675084,12.775 2.1,12.775 L11.9,12.775 C12.3832492,12.775 12.775,12.3832492 12.775,11.9 L12.775,4.41746212 L9.58253788,1.225 L2.1,1.225 Z M11.9,13.825 L2.1,13.825 C1.03685186,13.825 0.175,12.9631481 0.175,11.9 L0.175,2.1 C0.175,1.03685186 1.03685186,0.175 2.1,0.175 L9.8,0.175 C9.93923866,0.175 10.0727745,0.230312341 10.1712311,0.32876894 L13.6712311,3.82876894 C13.7696877,3.92722554 13.825,4.06076134 13.825,4.2 L13.825,11.9 C13.825,12.9631481 12.9631481,13.825 11.9,13.825 Z" id="Shape-Copy-4"></path>
            <path d="M4.025,8.225 L9.975,8.225 L9.975,13.3 C9.975,13.5899495 10.2100505,13.825 10.5,13.825 C10.7899495,13.825 11.025,13.5899495 11.025,13.3 L11.025,7.7 C11.025,7.41005051 10.7899495,7.175 10.5,7.175 L3.5,7.175 C3.21005051,7.175 2.975,7.41005051 2.975,7.7 L2.975,13.3 C2.975,13.5899495 3.21005051,13.825 3.5,13.825 C3.78994949,13.825 4.025,13.5899495 4.025,13.3 L4.025,8.225 Z" id="Shape-Copy-5"></path>
            <path d="M4.025,3.675 L4.025,0.7 C4.025,0.410050506 3.78994949,0.175 3.5,0.175 C3.21005051,0.175 2.975,0.410050506 2.975,0.7 L2.975,4.2 C2.975,4.48994949 3.21005051,4.725 3.5,4.725 L9.1,4.725 C9.38994949,4.725 9.625,4.48994949 9.625,4.2 C9.625,3.91005051 9.38994949,3.675 9.1,3.675 L4.025,3.675 Z" id="Shape-Copy-6"></path>
        </g>
    </g>
</svg>