<?xml version="1.0" encoding="UTF-8"?>
<svg width="16px" height="16px" viewBox="0 0 16 16" version="1.1" xmlns="http://www.w3.org/2000/svg" xmlns:xlink="http://www.w3.org/1999/xlink">
    <!-- Generator: sketchtool 48.2 (47327) - http://www.bohemiancoding.com/sketch -->
    <title>2C59BD8F-2844-4AD9-BDAA-220C21A3AC96</title>
    <desc>Created with sketchtool.</desc>
    <defs></defs>
    <g id="Table_filter-Copy" stroke="none" stroke-width="1" fill="none" fill-rule="evenodd" transform="translate(-1073.000000, -128.000000)">
        <g id="Group-2" transform="translate(1056.000000, 75.000000)" fill="#92A0B0" fill-rule="nonzero" stroke="#92A0B0" stroke-width="0.399999619">
            <g id="search" transform="translate(18.000000, 54.000000)">
                <g id="Group">
                    <path d="M5.52703642,0.0713454545 C2.47931011,0.0713454545 0.000720631579,2.69247273 0.000720631579,5.9155013 C0.000720631579,9.13848701 2.47931011,11.7596494 5.52703642,11.7596494 C6.91810221,11.7596494 8.18705484,11.2108831 9.15944695,10.3107857 L13.3732627,14.7608571 C13.5171496,14.912961 13.747468,14.913 13.8913364,14.7608571 C14.0352417,14.6086948 14.0352785,14.3650714 13.8913364,14.2129675 L9.68328642,9.7628961 C10.5361075,8.73416883 11.0533522,7.38818182 11.0533522,5.9155013 C11.0533522,2.69247078 8.57474432,0.0713454545 5.52703642,0.0713454545 Z M5.52703642,0.850566234 C8.176518,0.850566234 10.3165101,3.11359675 10.3165101,5.9155013 C10.3165101,8.71735714 8.176518,10.9804286 5.52703642,10.9804286 C2.87753642,10.9804286 0.737562737,8.71735714 0.737562737,5.9155013 C0.737562737,3.11359481 2.87753642,0.850566234 5.52703642,0.850566234 Z" id="Shape"></path>
                </g>
            </g>
        </g>
    </g>
</svg>