<?xml version="1.0" encoding="UTF-8"?>
<svg width="20px" height="19px" viewBox="0 0 20 19" version="1.1" xmlns="http://www.w3.org/2000/svg" xmlns:xlink="http://www.w3.org/1999/xlink">
    <!-- Generator: sketchtool 48.2 (47327) - http://www.bohemiancoding.com/sketch -->
    <title>689C7023-3ECE-4A85-9F46-826C370818C1</title>
    <desc>Created with sketchtool.</desc>
    <defs></defs>
    <g id="Assets" stroke="none" stroke-width="1" fill="none" fill-rule="evenodd" transform="translate(-629.000000, -540.000000)">
        <g id="Star" transform="translate(629.000000, 540.000000)" fill="#B5BFCB" fill-rule="nonzero">
            <g id="Group" transform="translate(0.000000, 0.159455)">
                <path d="M15.7512,18.58705 C15.8875971,18.5774234 16.0141244,18.512807 16.1014738,18.408168 C16.1888231,18.303529 16.2294161,18.1679462 16.21385,18.032825 L15.5148,12.043825 L19.61795,7.613385 C19.7422385,7.48092452 19.7845197,7.29183741 19.7283934,7.11946732 C19.672267,6.94709724 19.526564,6.81856459 19.3478,6.783725 L13.4041,5.5980175 L10.43565,0.3446275 C10.3464648,0.188935967 10.1801568,0.0928026447 10,0.0928026447 C9.81984318,0.0928026447 9.65353521,0.188935967 9.56435,0.3446275 L6.5959,5.5980175 L0.6522,6.783725 C0.473435994,6.81856459 0.327732956,6.94709724 0.271606617,7.11946732 C0.215480278,7.29183741 0.257761455,7.48092452 0.38205,7.613385 L4.4852,12.043825 L3.78615,18.032825 C3.7656327,18.2113698 3.84328132,18.387086 3.98940409,18.4927821 C4.13552686,18.5984782 4.32752269,18.6178061 4.491975,18.543375 L10,16.027525 L15.50805,18.543375 C15.5841681,18.5778793 15.667756,18.5928935 15.7512,18.58705 Z M14.6387839,16.536055 L10.1898335,14.5047567 C10.0693357,14.4496773 9.93066433,14.4496773 9.81016645,14.5047567 L5.36121612,16.536055 L5.92767943,11.6998896 C5.94343527,11.56896 5.90094182,11.4377129 5.8113313,11.3405318 L2.49528491,7.76213887 L7.29327963,6.80282326 C7.42301816,6.77659695 7.53481658,6.6954206 7.5994613,6.58050608 L10,2.33515251 L12.4005387,6.58050608 C12.4651834,6.6954206 12.5769818,6.77659695 12.7067204,6.80282326 L17.5047151,7.76213887 L14.1886687,11.3405318 C14.0990582,11.4377129 14.0565647,11.56896 14.0723206,11.6998896 L14.6387839,16.536055 Z" id="Shape"></path>
            </g>
        </g>
    </g>
</svg>