<?xml version="1.0" encoding="UTF-8"?>
<svg width="21px" height="17px" viewBox="0 0 21 17" version="1.1" xmlns="http://www.w3.org/2000/svg" xmlns:xlink="http://www.w3.org/1999/xlink">
    <!-- Generator: sketchtool 48.2 (47327) - http://www.bohemiancoding.com/sketch -->
    <title>83019CC8-BDF1-4D93-A040-F83EEA73A071</title>
    <desc>Created with sketchtool.</desc>
    <defs></defs>
    <g id="Table_filter" stroke="none" stroke-width="1" fill="none" fill-rule="evenodd" transform="translate(-1071.000000, -299.000000)">
        <g id="Group-2" transform="translate(1056.000000, 75.000000)" fill="#92A0B0" fill-rule="nonzero" stroke="#92A0B0" stroke-width="0.3">
            <g id="status" transform="translate(16.000000, 225.000000)">
                <path d="M14.6160906,0.000471475413 C14.5787956,0.00688417845 14.5425118,0.01814272 14.508173,0.033957348 L2.08415874,4.92959192 L0.431670419,4.92959192 C0.19332055,4.92953897 5.5873982e-05,5.12143756 0,5.35821109 L3.83400351e-16,9.64440278 C5.5873982e-05,9.8811763 0.19332055,10.0730749 0.431670419,10.0730219 L2.08415874,10.0730219 L3.68943312,10.7025563 L2.65072617,12.4237302 C2.58654156,12.5311731 2.57273096,12.6610841 2.61290759,12.7794752 C2.65308421,12.8978663 2.7432505,12.9929574 2.85981653,13.0398703 L7.17652072,14.7543469 C7.37306792,14.8345133 7.59911222,14.7606448 7.7093639,14.5802204 L8.82900905,12.7318002 L14.508173,14.9686565 C14.6408396,15.022021 14.7915091,15.0065753 14.9104092,14.9274216 C15.0293094,14.8482679 15.1009704,14.7157049 15.1017198,14.5735232 L15.1017198,0.429090644 C15.1017503,0.313027063 15.0544088,0.201910433 14.9705134,0.121132327 C14.8866179,0.0403542213 14.7733381,-0.0031822784 14.6565597,0.000471475413 C14.6430774,-0.000157158471 14.6295729,-0.000157158471 14.6160906,0.000471475413 Z M14.238379,1.05862505 L14.238379,13.9439888 L3.02169294,9.52385364 L3.02169294,5.47876023 L14.238379,1.05862505 Z M18.5685729,2.13687015 C18.5527227,2.13823633 18.5369606,2.14047213 18.5213589,2.14356732 C18.4545498,2.14881982 18.3898901,2.1694564 18.3325031,2.20384189 L16.174151,3.4896994 C15.9707412,3.61241319 15.9053563,3.87532298 16.0278383,4.0780166 C16.1503202,4.28071022 16.4146402,4.34701535 16.6193112,4.22638859 L18.7776632,2.94053109 C18.9496799,2.84578401 19.0354475,2.647484 18.98623,2.45831149 C18.9370126,2.26913899 18.7652622,2.13695477 18.5685729,2.13687015 Z M0.863340839,5.78683026 L2.1583521,5.78683026 L2.1583521,9.21578361 L0.863340839,9.21578361 L0.863340839,5.78683026 Z M16.3157929,7.07268776 C16.0774971,7.09489042 15.9024388,7.30478856 15.9247893,7.54150839 C15.9471397,7.77822821 16.1584353,7.95212874 16.3967311,7.9299261 L18.5550832,7.9299261 C18.7114608,7.93329012 18.857431,7.8523395 18.9366137,7.71834082 C19.0157965,7.58434214 19.0157965,7.41827172 18.9366137,7.28427304 C18.857431,7.15027437 18.7114608,7.06932374 18.5550832,7.07268776 L16.3967311,7.07268776 C16.3832488,7.07205913 16.3697443,7.07205913 16.356262,7.07268776 C16.3427797,7.07205976 16.3292752,7.07205976 16.3157929,7.07268776 Z M16.3764965,10.7092535 C16.3606463,10.7106197 16.3448843,10.7128555 16.3292826,10.7159507 C16.1462444,10.7410176 15.9995756,10.8790521 15.9644973,11.0592614 C15.9294189,11.2394707 16.0137142,11.4218705 16.174151,11.5129145 L18.3325031,12.798772 C18.5371736,12.9193932 18.8014886,12.8530866 18.9239689,12.6503957 C19.0464491,12.4477049 18.9810679,12.1847988 18.7776632,12.0620828 L16.6193112,10.7762253 C16.5468824,10.7304017 16.4623394,10.7070835 16.3764965,10.7092535 Z M4.49881515,11.0307179 L7.99939246,12.4237302 L7.15628617,13.8301368 L3.65570887,12.4371245 L4.49881515,11.0307179 Z" id="Shape"></path>
            </g>
        </g>
    </g>
</svg>