<?xml version="1.0" encoding="UTF-8"?>
<svg width="18px" height="18px" viewBox="0 0 18 18" version="1.1" xmlns="http://www.w3.org/2000/svg" xmlns:xlink="http://www.w3.org/1999/xlink">
    <!-- Generator: sketchtool 48.2 (47327) - http://www.bohemiancoding.com/sketch -->
    <title>72E37AB9-C078-4E65-BB93-8990EC581974</title>
    <desc>Created with sketchtool.</desc>
    <defs></defs>
    <g id="Table_filter" stroke="none" stroke-width="1" fill="none" fill-rule="evenodd" transform="translate(-1073.000000, -356.000000)">
        <g id="Group-2" transform="translate(1056.000000, 75.000000)" fill="#92A0B0" fill-rule="nonzero" stroke-width="0.3">
            <g id="tag" transform="translate(18.000000, 282.000000)">
                <g id="Group">
                    <path d="M7.39294118,15.8847059 C7.26751892,15.8848053 7.14724621,15.8348328 7.05882353,15.7458824 L0.254117647,8.94117647 C0.16575198,8.85290906 0.116100397,8.73313376 0.116100397,8.60823529 C0.116100397,8.48333682 0.16575198,8.36356153 0.254117647,8.27529412 L8.27529412,0.254117647 C8.3747479,0.154173632 8.51377503,0.104089324 8.65411765,0.117647059 L14.8588235,0.72 C15.0832185,0.741513463 15.2608395,0.919134474 15.2823529,1.14352941 L15.8823529,7.34823529 C15.8959107,7.48857791 15.8458264,7.62760504 15.7458824,7.72705882 L7.72470588,15.7458824 C7.63685876,15.8342559 7.51754749,15.8841805 7.39294118,15.8847059 Z M1.25176471,8.60705882 L7.39294118,14.7482353 L14.9223529,7.21882353 L14.3811765,1.62117647 L8.78352941,1.07529412 L1.25176471,8.60705882 Z" id="Shape" stroke="#909FAF"></path>
                    <path d="M10.4058184,6.88209331 C9.79372481,6.87902419 9.26883501,6.44446368 9.15157896,5.84369833 C9.0343229,5.24293298 9.35728133,4.64289132 9.92329752,4.40988132 C10.4893137,4.17687132 11.1411145,4.37563709 11.4807945,4.88483791 C11.8204746,5.39403873 11.7536504,6.07218817 11.3211162,6.50529574 C11.0790908,6.74885455 10.7491703,6.88467183 10.4058184,6.88209331 Z" id="Shape" stroke="#92A0B0"></path>
                </g>
            </g>
        </g>
    </g>
</svg>