<?xml version="1.0" encoding="UTF-8"?>
<svg width="16px" height="17px" viewBox="0 0 16 17" version="1.1" xmlns="http://www.w3.org/2000/svg" xmlns:xlink="http://www.w3.org/1999/xlink">
    <!-- Generator: sketchtool 48.2 (47327) - http://www.bohemiancoding.com/sketch -->
    <title>CEF5BC60-3ED7-484C-80E1-54A2A8278A9F</title>
    <desc>Created with sketchtool.</desc>
    <defs></defs>
    <g id="Assets" stroke="none" stroke-width="1" fill="none" fill-rule="evenodd" transform="translate(-877.000000, -590.000000)">
        <g id="Time" transform="translate(877.000000, 590.000000)" fill="#B5BFCB" fill-rule="nonzero">
            <g id="Group" transform="translate(0.000000, 0.133452)">
                <path d="M7.89230776,0.075781293 C3.54090465,0.075781293 0,3.64291068 0,8.02655269 C0,12.4101884 3.54090465,15.977322 7.89230776,15.977322 C12.2437109,15.977322 15.7846155,12.4101884 15.7846155,8.02655269 C15.7846155,3.64291068 12.2437109,0.0757833853 7.89230776,0.0757833853 L7.89230776,0.075781293 Z M7.89230776,1.33116592 C11.570227,1.33116592 14.5384617,4.32137911 14.5384617,8.02655269 C14.5384617,11.7317158 11.570227,14.7219374 7.89230776,14.7219374 C4.2143885,14.7219374 1.24615386,11.7317158 1.24615386,8.02655269 C1.24615386,4.32137911 4.2143885,1.33116801 7.89230776,1.33116801 L7.89230776,1.33116592 Z M7.89230776,2.37731977 C7.54820314,2.37731977 7.26923083,2.65835855 7.26923083,3.00501209 L7.26923083,8.02655269 C7.26923083,8.25869423 7.3948016,8.46064377 7.5807693,8.56925546 L11.5399039,10.870773 C11.8379009,11.0440998 12.2181024,10.9421626 12.390134,10.6419373 C12.5622278,10.3417121 12.4609986,9.95873609 12.1629809,9.78540932 L8.51538469,7.66694776 L8.51538469,3.00501209 C8.51538469,2.65835855 8.23643315,2.37731977 7.89230776,2.37731977 Z" id="Shape"></path>
            </g>
        </g>
    </g>
</svg>