<?xml version="1.0" encoding="UTF-8"?>
<svg width="12px" height="13px" viewBox="0 0 12 13" version="1.1" xmlns="http://www.w3.org/2000/svg" xmlns:xlink="http://www.w3.org/1999/xlink">
    <!-- Generator: sketchtool 48.1 (47250) - http://www.bohemiancoding.com/sketch -->
    <title>D633EFFD-ABEB-4558-A32E-68CA344B043E</title>
    <desc>Created with sketchtool.</desc>
    <defs></defs>
    <g id="2_table_elements_2" stroke="none" stroke-width="1" fill="none" fill-rule="evenodd" transform="translate(-1838.000000, -110.000000)">
        <g id="Download" transform="translate(1838.000000, 110.000000)" fill="#B3BFC9" fill-rule="nonzero">
            <polygon id="Shape" points="3.89 5.9 3.18 6.61 6.01 9.44 8.84 6.61 8.13 5.9 6.5 7.53 6.5 0.25 5.5 0.25 5.5 7.51"></polygon>
            <path d="M11,2.25 L7.5,2.25 L7.5,3.25 L11,3.25 L11,11.25 L1,11.25 L1,3.25 L4.5,3.25 L4.5,2.25 L1,2.25 C0.481034804,2.24789429 0.0467029801,2.64313625 0,3.16 L0,11.34 C0.0467029801,11.8568638 0.481034804,12.2521057 1,12.25 L11,12.25 C11.5189652,12.2521057 11.953297,11.8568638 12,11.34 L12,3.16 C11.953297,2.64313625 11.5189652,2.24789429 11,2.25 Z" id="Shape"></path>
        </g>
    </g>
</svg>